<svg xmlns="http://www.w3.org/2000/svg" viewBox="0 0 164.95 165.21"><path d="M20.81 35.35c6.25.08 11 1.84 14.86 5.73q17.88 18 35.72 36.08c4.43 4.48 4.42 6.25 0 10.7a102.94 102.94 0 0 1-8.58 8.4c-1.26 1-4 1.53-5.3.86-15.38-7.7-30.71-15.5-45.86-23.62A21 21 0 0 1 3.5 44.6c3.96-7.15 10.79-8.7 17.31-9.25zM129.35 24.29c0 2.79-1.55 7.5-5.34 11.27q-18.8 18.7-37.65 37.34c-2.88 2.85-5.8 2.7-8.57-.08C74 69 68.12 65.58 67.28 61.19c-.81-4.24 3.47-9.57 5.83-14.27 5.58-11.13 11.34-22.18 17-33.25C94.62 5 103.48 0 111.91 1.19c11.09 1.61 17.4 9.09 17.44 23.1zM143.39 129.11c-5.42.07-10.12-1.45-14.07-5.45-12-12.15-24.13-24.16-36.18-36.26C88.72 83 88.72 81 93 76.58c2.69-2.77 5.57-5.36 8.16-8.21 1.78-2 3.48-2.35 5.84-1.12 15.13 7.84 30.41 15.43 45.43 23.49a20.85 20.85 0 0 1 9.7 26.67c-2.99 7.52-9.34 11.48-18.74 11.7zM54.75 164.1c-7.1-.65-13.53-3-16.74-10.6-3.5-8.27-3.8-16.53 2.73-23.3 12.48-12.93 25.42-25.42 38.2-38 2.55-2.52 5.25-2.41 7.86 0 .22.21.42.43.63.64 3.68 3.86 9.55 7.3 10.4 11.71.78 4.07-3.71 9.23-6 13.83-6 11.77-11.92 23.57-18.19 35.19-3.91 7.13-10.46 10.23-18.89 10.53z" fill="#1274c6"/><path d="M109.13 59.73c8.6-7.78 15.8-15.29 24-21.44 7.28-5.44 17.61-3.44 24.49 3.15 7.41 7.09 9.44 18.2 5 27-4.66 9.1-11.3 11.88-20.65 7.63-10.65-4.83-20.97-10.37-32.84-16.34zM55.31 104.74c-8.61 7.76-15.78 16-24.56 21.71-12 7.86-29-1.64-30.59-16.37A30.45 30.45 0 0 1 1.69 97C4.91 87.92 13 84.21 21.81 88.1c10.96 4.83 21.5 10.62 33.5 16.64zM59.11 54.59c-6.64-7.12-13.92-13.77-19.77-21.49-7.13-9.41-4.34-21.45 5.4-28.52S69-1.29 75.47 7.94c1.89 2.7 3.12 7.56 2 10.35C72.51 30.56 66.58 42.44 61 54.47zM104 111.76c7.34 6.73 15.08 12.5 21.11 19.69 7.6 9.05 5.12 21.54-4.32 28.71-9.89 7.5-23.72 6.57-31-2.23-3.6-4.35-3.79-9.45-1.52-14.29 5-10.73 10.46-21.27 15.75-31.88.09-.23.46-.33-.02 0z" fill="#0c3b70"/></svg>