<svg width="256" height="258" viewBox="0 0 256 258" fill="none" xmlns="http://www.w3.org/2000/svg">
<rect width="256" height="256" rx="61" fill="#3B82F6"/>
<g filter="url(#filter0_d_1_3)">
<path d="M76.74 205.53C72.94 203.503 70.5333 201.413 69.52 199.26C68.5067 197.107 68 195.27 68 193.75C68 190.33 69.2033 185.77 71.61 180.07C74.1433 174.243 77.5 167.593 81.68 160.12C85.86 152.647 90.61 144.857 95.93 136.75C92.0033 136.497 88.2667 136.307 84.72 136.18C81.1733 136.053 76.6133 135.99 71.04 135.99H68C69.7733 131.43 72.56 128.263 76.36 126.49C80.2867 124.59 84.8467 123.64 90.04 123.64C92.1933 123.64 94.41 123.767 96.69 124.02C99.0967 124.273 101.567 124.527 104.1 124.78C110.433 115.66 116.64 107.047 122.72 98.94C128.927 90.8333 134.753 83.55 140.2 77.09C145.773 70.5033 150.713 65.12 155.02 60.94C161.1 54.86 165.533 51.82 168.32 51.82C170.093 51.82 172.057 52.5167 174.21 53.91C176.49 55.3033 178.833 57.0767 181.24 59.23C179.973 60.2433 178.327 62.84 176.3 67.02C174.4 71.2 172.31 76.52 170.03 82.98C167.877 89.3133 165.66 96.28 163.38 103.88C161.227 111.48 159.263 119.207 157.49 127.06C155.717 134.913 154.26 142.45 153.12 149.67C152.107 156.763 151.6 163.033 151.6 168.48C151.6 173.547 152.107 177.347 153.12 179.88C154.133 182.287 155.843 183.49 158.25 183.49C161.163 183.49 164.773 181.273 169.08 176.84C173.387 172.407 178.2 165.187 183.52 155.18L186.94 158.79C183.013 169.177 177.883 177.727 171.55 184.44C165.343 191.153 158.693 194.51 151.6 194.51C145.52 194.51 141.213 191.913 138.68 186.72C136.147 181.4 134.88 174.18 134.88 165.06C134.88 162.147 135.07 158.853 135.45 155.18C135.83 151.507 136.463 146.947 137.35 141.5C131.777 140.613 126.837 139.917 122.53 139.41C118.223 138.903 114.107 138.397 110.18 137.89C104.1 148.657 98.21 159.803 92.51 171.33C86.81 182.857 81.5533 194.257 76.74 205.53ZM139.25 132.19C140.897 124.717 142.797 117.18 144.95 109.58C147.23 101.853 149.573 94.5067 151.98 87.54C154.513 80.4467 156.983 74.1133 159.39 68.54C155.59 71.58 151.347 75.95 146.66 81.65C141.973 87.35 137.033 94.0633 131.84 101.79C126.773 109.517 121.58 117.94 116.26 127.06C120.06 127.82 123.86 128.643 127.66 129.53C131.46 130.417 135.323 131.303 139.25 132.19Z" fill="white"/>
</g>
<defs>
<filter id="filter0_d_1_3" x="20" y="7.81999" width="214.94" height="249.71" filterUnits="userSpaceOnUse" color-interpolation-filters="sRGB">
<feFlood flood-opacity="0" result="BackgroundImageFix"/>
<feColorMatrix in="SourceAlpha" type="matrix" values="0 0 0 0 0 0 0 0 0 0 0 0 0 0 0 0 0 0 127 0" result="hardAlpha"/>
<feOffset dy="4"/>
<feGaussianBlur stdDeviation="24"/>
<feComposite in2="hardAlpha" operator="out"/>
<feColorMatrix type="matrix" values="0 0 0 0 1 0 0 0 0 0.995833 0 0 0 0 0.995833 0 0 0 0.1 0"/>
<feBlend mode="normal" in2="BackgroundImageFix" result="effect1_dropShadow_1_3"/>
<feBlend mode="normal" in="SourceGraphic" in2="effect1_dropShadow_1_3" result="shape"/>
</filter>
</defs>
</svg>
